<?xml version="1.0" encoding="UTF-8"?>
<svg xmlns="http://www.w3.org/2000/svg" xmlns:xlink="http://www.w3.org/1999/xlink" width="512px" height="512px" viewBox="0 0 512 512" version="1.1">
<g id="surface1">
<path style=" stroke:none;fill-rule:nonzero;fill:rgb(100%,100%,100%);fill-opacity:1;" d="M 384 416 C 384 451.359375 348.160156 480 304 480 C 259.839844 480 224 451.359375 224 416 C 224 380.640625 259.839844 352 304 352 C 348.160156 352 384 380.640625 384 416 "/>
<path style=" stroke:none;fill-rule:evenodd;fill:rgb(100%,100%,100%);fill-opacity:1;" d="M 384 96 L 384 416 L 352 416 L 352 96 Z M 384 96 "/>
<path style=" stroke:none;fill-rule:nonzero;fill:rgb(100%,100%,100%);fill-opacity:1;" d="M 352 90.238281 C 352.007812 74.992188 362.777344 61.867188 377.726562 58.878906 L 473.726562 39.679688 C 483.125 37.800781 492.871094 40.234375 500.28125 46.308594 C 507.695312 52.382812 511.996094 61.457031 512 71.039062 L 512 128 L 352 160 Z M 352 90.238281 "/>
<path style=" stroke:none;fill-rule:evenodd;fill:rgb(100%,100%,100%);fill-opacity:1;" d="M 0 368 C 0 359.164062 7.164062 352 16 352 L 128 352 C 136.835938 352 144 359.164062 144 368 C 144 376.835938 136.835938 384 128 384 L 16 384 C 7.164062 384 0 376.835938 0 368 M 0 240 C 0 231.164062 7.164062 224 16 224 L 256 224 C 264.835938 224 272 231.164062 272 240 C 272 248.835938 264.835938 256 256 256 L 16 256 C 7.164062 256 0 248.835938 0 240 M 0 112 C 0 103.164062 7.164062 96 16 96 L 256 96 C 264.835938 96 272 103.164062 272 112 C 272 120.835938 264.835938 128 256 128 L 16 128 C 7.164062 128 0 120.835938 0 112 "/>
</g>
</svg>
